{"title":"X-Men The Days Of Future Past 2014 NEW SOURCE 720p HDCAM V3 x264","uid":10246237,"size":2017724820,"categoryP":"video","categoryS":"movies","magnet":"?xt=urn:btih:7d338b25e02af23a284cda4a296e29a4d14249cf&amp;dn=X-Men+The+Days+Of+Future+Past+2014+NEW+SOURCE+720p+HDCAM+V3+x264&amp;tr=udp%3A%2F%2Ftracker.openbittorrent.com%3A80&amp;tr=udp%3A%2F%2Fopen.demonii.com%3A1337&amp;tr=udp%3A%2F%2Ftracker.coppersurfer.tk%3A6969&amp;tr=udp%3A%2F%2Fexodus.desync.com%3A6969","seeders":1,"leechers":0,"uploader":"shawnmurthy","files":-1,"time":1401298861,"description":"SOURCE IS HD AND THIS CAM IS VERY GOOD FOR VERY EARLY RELEASE...THANKS FOR SPECTER FOR THE SOURCE....THE VIDEO WAS GOOD I DID 6 CUTS ON IT AND BRIGHTENED THE DARK SCENCES NOT MUCH ON THERE....AUDIO WAS OUT WAS SYNC...SYCNED IT UP AND STOPPED THE ECHOING...UNTIL TS ENJOY...PIMP4003 OUT\n\nSCREENSHOTS\n &lt;a href=&quot;\nhttp://pimp4003.net/torrents.php?id=7d338b25e02af23a284cda4a296e29a4d14249cf&quot; rel=&quot;nofollow&quot; target=&quot;_NEW&quot;&gt;\nhttp://pimp4003.net/torrents.php?id=7d338b25e02af23a284cda4a296e29a4d14249cf&lt;/a&gt;\n\nX-Men The Days Of Future Past 2014 NEW SOURCE 720p HDCAM V3 x264 Pimp4003\n &lt;a href=&quot;\nhttp://www.imdb.com/title/tt1877832/&quot; rel=&quot;nofollow&quot; target=&quot;_NEW&quot;&gt;\nhttp://www.imdb.com/title/tt1877832/&lt;/a&gt;\n\nThe X-Men send Wolverine to the past in a desperate effort to change history and prevent an event that results in doom for both humans and mutants.\n\nDirector: Bryan Singer\nWriters: Simon Kinberg (screenplay), Jane Goldman (story), 2 more credits Â»\nStars: Patrick Stewart, Ian McKellen, Hugh Jackman | See full cast and crew Â»\n\nVideo\nID                                       : 2\nFormat                                   : AVC\nFormat/Info                              : Advanced Video Codec\nFormat profile                           : &lt;a class=&quot;__cf_email__&quot; href=&quot;/cdn-cgi/l/email-protection&quot; data-cfemail=&quot;62200311070e0b0c07222e514c52&quot;&gt;[email&amp;#160;protected]&lt;/a&gt;&lt;script data-cfhash='f9e31' type=&quot;text/javascript&quot;&gt;\n/* &lt;![CDATA[ */!function(){try{var t=&quot;currentScript&quot;in document?document.currentScript:function(){for(var t=document.getElementsByTagName(&quot;script&quot;),e=t.length;e--;)if(t[e].getAttribute(&quot;data-cfhash&quot;))return t[e]}();if(t&amp;&amp;t.previousSibling){var e,r,n,i,c=t.previousSibling,a=c.getAttribute(&quot;data-cfemail&quot;);if(a){for(e=&quot;&quot;,r=parseInt(a.substr(0,2),16),n=2;a.length-n;n+=2)i=parseInt(a.substr(n,2),16)^r,e+=String.fromCharCode(i);e=document.createTextNode(e),c.parentNode.replaceChild(e,c)}t.parentNode.removeChild(t);}}catch(u){}}()/* ]]&gt; */&lt;/script&gt;\nFormat settings, CABAC                   : No\nFormat settings, ReFrames                : 1 frame\nFormat settings, GOP                     : M=1, N=25\nMuxing mode                              : Container profile=&lt;a class=&quot;__cf_email__&quot; href=&quot;/cdn-cgi/l/email-protection&quot; data-cfemail=&quot;91d3f0e2f4fdf8fff4d1a5bfa0&quot;&gt;[email&amp;#160;protected]&lt;/a&gt;&lt;script data-cfhash='f9e31' type=&quot;text/javascript&quot;&gt;\n/* &lt;![CDATA[ */!function(){try{var t=&quot;currentScript&quot;in document?document.currentScript:function(){for(var t=document.getElementsByTagName(&quot;script&quot;),e=t.length;e--;)if(t[e].getAttribute(&quot;data-cfhash&quot;))return t[e]}();if(t&amp;&amp;t.previousSibling){var e,r,n,i,c=t.previousSibling,a=c.getAttribute(&quot;data-cfemail&quot;);if(a){for(e=&quot;&quot;,r=parseInt(a.substr(0,2),16),n=2;a.length-n;n+=2)i=parseInt(a.substr(n,2),16)^r,e+=String.fromCharCode(i);e=document.createTextNode(e),c.parentNode.replaceChild(e,c)}t.parentNode.removeChild(t);}}catch(u){}}()/* ]]&gt; */&lt;/script&gt;\nCodec ID                                 : avc1\nCodec ID/Info                            : Advanced Video Coding\nDuration                                 : 2h 2mn\nBit rate                                 : 2 066 Kbps\nWidth                                    : 1 280 pixels\nHeight                                   : 720 pixels\nDisplay aspect ratio                     : 16:9\nFrame rate mode                          : Constant\nFrame rate                               : 29.970 fps\nOriginal frame rate                      : 29.000 fps\nColor space                              : YUV\nChroma subsampling                       : 4:2:0\nBit depth                                : 8 bits\nScan type                                : Progressive\nBits/(Pixel*Frame)                       : 0.075\nStream size                              : 1.77 GiB (94%)\nWriting library                          : Ã„\nLanguage                                 : English\n\nAudio\nID                                       : 1\nFormat                                   : AAC\nFormat/Info                              : Advanced Audio Codec\nFormat profile                           : LC\nCodec ID                                 : 40\nDuration                                 : 2h 2mn\nBit rate mode                            : Constant\nBit rate                                 : 128 Kbps\nChannel(s)                               : 2 channels\nChannel positions                        : Front: L R\nSampling rate                            : 48.0 KHz\nCompression mode                         : Lossy\nStream size                              : 112 MiB (6%)\nLanguage                                 : English\n\n","torrent":{"xt":"urn:btih:7d338b25e02af23a284cda4a296e29a4d14249cf","amp;dn":"X-Men+The+Days+Of+Future+Past+2014+NEW+SOURCE+720p+HDCAM+V3+x264","amp;tr":["udp%3A%2F%2Ftracker.openbittorrent.com%3A80","udp%3A%2F%2Fopen.demonii.com%3A1337","udp%3A%2F%2Ftracker.coppersurfer.tk%3A6969","udp%3A%2F%2Fexodus.desync.com%3A6969"],"infoHash":"7d338b25e02af23a284cda4a296e29a4d14249cf","infoHashBuffer":{"type":"Buffer","data":[125,51,139,37,224,42,242,58,40,76,218,74,41,110,41,164,209,66,73,207]},"announce":[],"urlList":[]}}